<svg xmlns="http://www.w3.org/2000/svg" viewBox="0 0 201 188" version="1.1">
<path d="M 82.318 1.096 C 61.974 3.466, 38.469 17.045, 24.169 34.689 C 17.339 43.116, 10.448 55.746, 7.055 66.055 C 2.283 80.553, 2.273 107.968, 7.034 122.100 C 15.394 146.916, 32.589 166.752, 55.875 178.440 C 70.480 185.771, 77.420 187.259, 97 187.259 C 116.746 187.259, 123.486 185.785, 138.743 178.129 C 158.273 168.328, 172.012 154.344, 181.606 134.500 C 188.969 119.271, 190.327 112.963, 190.327 94 C 190.327 75.010, 188.963 68.697, 181.580 53.500 C 170.074 29.819, 150.739 12.869, 125.290 4.157 C 114.465 0.450, 97.955 -0.726, 82.318 1.096 M 83.500 2.422 C 79.100 3.167, 71.900 4.940, 67.500 6.363 C 59.383 8.986, 44.418 16.831, 42.390 19.525 C 41.779 20.336, 40.832 21, 40.285 21 C 38.771 21, 24 36.098, 24 37.645 C 24 38.390, 23.593 39, 23.095 39 C 21.845 39, 13.235 53.877, 10.845 60.165 C 5.533 74.145, 3.239 91.202, 4.949 104 C 7.071 119.879, 15.051 140.438, 21.915 147.708 C 23.062 148.923, 24 150.320, 24 150.813 C 24 152.209, 39.133 167, 40.562 167 C 41.261 167, 41.983 167.381, 42.167 167.848 C 42.350 168.314, 45.650 170.759, 49.500 173.282 C 58.193 178.977, 74.015 184.355, 87.088 186.056 C 107.127 188.663, 132.906 182.266, 147.770 170.996 C 150.669 168.798, 153.476 167, 154.008 167 C 155.501 167, 170 152.008, 170 150.464 C 170 149.714, 170.573 148.740, 171.273 148.300 C 172.677 147.418, 181 134.824, 181 133.581 C 181 133.153, 181.646 131.384, 182.436 129.651 C 185.025 123.971, 187.893 112.669, 189.138 103.250 C 190.103 95.949, 190.101 92.051, 189.130 84.750 C 187.756 74.413, 184.174 61, 182.787 61 C 182.289 61, 182.139 60.584, 182.454 60.075 C 182.768 59.566, 182.468 57.879, 181.786 56.325 C 179.569 51.273, 171.875 39, 170.925 39 C 170.416 39, 170 38.390, 170 37.645 C 170 35.879, 155.121 21, 153.355 21 C 152.610 21, 152 20.602, 152 20.115 C 152 19.021, 140.205 11.843, 133.693 8.974 C 119.690 2.804, 97.978 -0.030, 83.500 2.422 M 87 10.605 C 60.626 13.782, 34.682 31.897, 22.778 55.447 C 15.759 69.333, 13.703 77.852, 13.592 93.500 C 13.480 109.394, 15.499 118.070, 22.613 132.254 C 29.830 146.644, 43.962 160.856, 58.254 168.098 C 72.541 175.336, 81.332 177.461, 97 177.461 C 112.393 177.461, 121.650 175.268, 135.408 168.363 C 156.760 157.648, 172 137.814, 179.102 111.500 C 180.902 104.827, 180.918 83.020, 179.126 76.500 C 171.719 49.543, 157.016 30.546, 135 19.487 C 127.363 15.651, 125.596 14.989, 116.138 12.422 C 110.650 10.933, 93.276 9.850, 87 10.605 M 77.101 14.458 C 30.299 26.039, 4.168 74.278, 19.380 121.013 C 26.537 143.002, 47.100 163.943, 68.694 171.233 C 87.400 177.548, 106.600 177.548, 125.306 171.233 C 146.445 164.096, 167.105 143.373, 174.228 122.161 C 184.969 90.177, 177.501 57.946, 154.033 35 C 133.920 15.335, 104.887 7.582, 77.101 14.458 M 89 37.117 C 84.221 39.009, 79.208 44.963, 77.939 50.255 C 75.394 60.865, 78.763 71.485, 86.341 76.736 C 89.723 79.080, 91.343 79.500, 97 79.500 C 102.657 79.500, 104.277 79.080, 107.659 76.736 C 115.237 71.485, 118.606 60.865, 116.061 50.255 C 114.754 44.808, 109.702 38.948, 104.685 37.060 C 101.211 35.752, 92.366 35.784, 89 37.117 M 86.834 40.467 C 76.004 47.826, 75.203 64.882, 85.281 73.508 C 93.689 80.705, 101.856 80.407, 109.644 72.619 C 114.605 67.658, 116.502 61.839, 115.534 54.546 C 114.064 43.467, 107.890 38, 96.846 38 C 91.710 38, 89.756 38.481, 86.834 40.467 M 49.071 55.752 C 43.266 58.711, 41.500 62.111, 41.500 70.323 C 41.500 76.419, 41.877 78.004, 44 80.847 C 54.499 94.906, 75.117 82.473, 69.943 65.204 C 67.056 55.567, 57.723 51.340, 49.071 55.752 M 133 54.702 C 129.411 56.003, 125.099 61.419, 123.998 66.009 C 121.363 76.991, 128.423 87, 138.802 87 C 146.946 87, 153.003 79.752, 152.996 70.016 C 152.992 63.526, 150.641 58.971, 145.759 55.995 C 142.650 54.099, 136.407 53.467, 133 54.702 M 51.333 56.087 C 38.408 59.871, 39.988 83.031, 53.343 85.536 C 57.700 86.354, 59.665 85.731, 63.691 82.255 C 75.572 71.998, 66.027 51.786, 51.333 56.087 M 134.286 56.099 C 127.451 58.097, 123.072 68.809, 126.057 76.233 C 127.723 80.380, 132.151 84.749, 135.551 85.602 C 140.110 86.747, 145.748 84.338, 148.601 80.027 C 152.239 74.530, 152.702 69.432, 150.087 63.690 C 146.947 56.799, 141.253 54.063, 134.286 56.099 M 78.882 91.337 C 70.454 94.450, 62.273 101.757, 59.264 108.860 C 58.416 110.862, 57.577 116.199, 57.400 120.720 C 57.100 128.397, 57.254 129.149, 59.742 132.106 C 64.482 137.739, 66.145 138, 97.218 137.998 C 128.326 137.997, 130 137.713, 134.429 131.678 C 136.992 128.187, 137.477 117.774, 135.399 110.860 C 133.619 104.939, 126.805 97.316, 119.848 93.462 C 114.618 90.565, 114.146 90.494, 98.500 90.251 C 87.080 90.073, 81.464 90.384, 78.882 91.337 M 81.197 92.503 C 74.499 94.376, 72.755 95.324, 67.864 99.742 C 59.172 107.594, 55.533 123.806, 60.846 131 C 64.404 135.816, 65.540 135.970, 97.850 135.985 L 128.200 136 131.449 132.750 C 138.859 125.339, 136.130 108.771, 125.992 99.612 C 118.841 93.151, 114.290 91.733, 99.500 91.353 C 90.176 91.114, 85 91.439, 81.197 92.503 M 41.500 95.393 C 31.173 99.917, 24.734 115.979, 29.897 124.333 C 33.281 129.808, 42.591 133.009, 45.800 129.800 C 46.466 129.134, 47.005 125.906, 47.012 122.550 C 47.025 115.646, 48.824 108.060, 52.007 101.485 C 53.212 98.996, 53.943 96.293, 53.631 95.480 C 52.911 93.604, 45.699 93.553, 41.500 95.393 M 140.377 95.460 C 140.069 96.263, 140.967 99.351, 142.372 102.322 C 145.640 109.228, 146.945 114.964, 146.976 122.550 C 147.003 129.318, 148.062 131, 152.299 131 C 162.597 131, 168.288 121.370, 164.824 109.807 C 163.359 104.916, 156.660 97.174, 152.327 95.363 C 147.920 93.522, 141.099 93.577, 140.377 95.460 M 41.915 97.039 C 34.452 100.831, 30.018 108.458, 30.006 117.527 C 29.996 124.103, 35.095 129, 41.950 129 C 44.917 129, 45.001 128.870, 45.037 124.250 C 45.094 116.829, 47.372 106.817, 50.124 101.893 C 51.505 99.423, 52.454 96.862, 52.234 96.201 C 51.656 94.468, 46.087 94.920, 41.915 97.039 M 141.568 95.890 C 141.265 96.380, 142.226 98.941, 143.702 101.582 C 146.608 106.782, 148.905 116.677, 148.963 124.250 C 148.999 128.870, 149.083 129, 152.050 129 C 155.840 129, 160.383 126.719, 162.439 123.783 C 165.880 118.870, 163.688 107.437, 158.197 101.664 C 153.403 96.624, 143.286 93.111, 141.568 95.890" stroke="none" fill="#e1f7fc" fill-rule="evenodd"/><path d="M 85.750 0.662 C 86.438 0.940, 87.563 0.940, 88.250 0.662 C 88.938 0.385, 88.375 0.158, 87 0.158 C 85.625 0.158, 85.063 0.385, 85.750 0.662 M 105.750 0.662 C 106.438 0.940, 107.563 0.940, 108.250 0.662 C 108.938 0.385, 108.375 0.158, 107 0.158 C 105.625 0.158, 105.063 0.385, 105.750 0.662 M 83.500 2.422 C 79.100 3.167, 71.900 4.940, 67.500 6.363 C 59.383 8.986, 44.418 16.831, 42.390 19.525 C 41.779 20.336, 40.832 21, 40.285 21 C 38.771 21, 24 36.098, 24 37.645 C 24 38.390, 23.593 39, 23.095 39 C 21.845 39, 13.235 53.877, 10.845 60.165 C 5.533 74.145, 3.239 91.202, 4.949 104 C 7.071 119.879, 15.051 140.438, 21.915 147.708 C 23.062 148.923, 24 150.320, 24 150.813 C 24 152.209, 39.133 167, 40.562 167 C 41.261 167, 41.983 167.381, 42.167 167.848 C 43.173 170.407, 57.563 178.218, 67 181.328 C 88.487 188.408, 106.037 188.415, 126.423 181.352 C 131.965 179.432, 137.470 177.779, 138.655 177.680 C 139.839 177.581, 140.636 177.220, 140.425 176.878 C 140.044 176.262, 148.916 169.794, 153.831 167.104 C 157.275 165.219, 170 152.097, 170 150.430 C 170 149.698, 170.578 148.740, 171.284 148.300 C 171.990 147.860, 174.061 145.139, 175.886 142.254 C 177.711 139.369, 179.495 137.188, 179.852 137.408 C 180.208 137.628, 180.561 136.791, 180.635 135.547 C 180.710 134.303, 181.468 131.759, 182.321 129.893 C 185.013 124.002, 187.872 112.828, 189.138 103.250 C 190.103 95.949, 190.101 92.051, 189.130 84.750 C 187.756 74.413, 184.174 61, 182.787 61 C 182.289 61, 182.139 60.584, 182.454 60.075 C 182.768 59.566, 182.468 57.879, 181.786 56.325 C 179.569 51.273, 171.875 39, 170.925 39 C 170.416 39, 170 38.390, 170 37.645 C 170 35.879, 155.121 21, 153.355 21 C 152.610 21, 152 20.602, 152 20.115 C 152 19.021, 140.205 11.843, 133.693 8.974 C 119.690 2.804, 97.978 -0.030, 83.500 2.422 M 87 10.605 C 60.626 13.782, 34.682 31.897, 22.778 55.447 C 15.759 69.333, 13.703 77.852, 13.592 93.500 C 13.480 109.394, 15.499 118.070, 22.613 132.254 C 29.830 146.644, 43.962 160.856, 58.254 168.098 C 72.541 175.336, 81.332 177.461, 97 177.461 C 112.393 177.461, 121.650 175.268, 135.408 168.363 C 156.760 157.648, 172 137.814, 179.102 111.500 C 180.902 104.827, 180.918 83.020, 179.126 76.500 C 171.719 49.543, 157.016 30.546, 135 19.487 C 127.363 15.651, 125.596 14.989, 116.138 12.422 C 110.650 10.933, 93.276 9.850, 87 10.605 M 86.834 40.467 C 75.994 47.833, 75.202 64.882, 85.299 73.524 C 87.580 75.477, 90.468 77.330, 91.716 77.644 C 92.965 77.957, 93.807 78.503, 93.589 78.857 C 93.370 79.211, 94.905 79.500, 97 79.500 C 99.095 79.500, 100.651 79.244, 100.458 78.932 C 100.265 78.619, 101.619 77.816, 103.467 77.148 C 108.028 75.499, 113.642 69.041, 115.045 63.832 C 117.493 54.742, 113.833 43.961, 106.996 40.118 C 101.418 36.983, 91.714 37.151, 86.834 40.467 M 51.333 56.087 C 38.408 59.871, 39.988 83.031, 53.343 85.536 C 57.700 86.354, 59.665 85.731, 63.691 82.255 C 75.572 71.998, 66.027 51.786, 51.333 56.087 M 134.286 56.099 C 127.451 58.097, 123.072 68.809, 126.057 76.233 C 127.723 80.380, 132.151 84.749, 135.551 85.602 C 140.110 86.747, 145.748 84.338, 148.601 80.027 C 152.239 74.530, 152.702 69.432, 150.087 63.690 C 146.947 56.799, 141.253 54.063, 134.286 56.099 M 3.195 84.500 C 3.215 86.150, 3.439 86.704, 3.693 85.731 C 3.947 84.758, 3.930 83.408, 3.656 82.731 C 3.382 82.054, 3.175 82.850, 3.195 84.500 M 190.158 84 C 190.158 85.375, 190.385 85.938, 190.662 85.250 C 190.940 84.563, 190.940 83.438, 190.662 82.750 C 190.385 82.063, 190.158 82.625, 190.158 84 M 81.197 92.503 C 74.499 94.376, 72.755 95.324, 67.864 99.742 C 63.820 103.395, 60.454 109.478, 59.309 115.203 C 58.752 117.989, 58.560 118.152, 57.837 116.453 C 57.220 115.005, 57.123 115.275, 57.463 117.500 C 57.715 119.150, 58.172 122.300, 58.478 124.500 C 59.115 129.080, 61.615 132.946, 65.096 134.735 C 66.846 135.635, 75.752 135.975, 97.850 135.985 L 128.200 136 131.449 132.750 C 138.859 125.339, 136.130 108.771, 125.992 99.612 C 118.841 93.151, 114.290 91.733, 99.500 91.353 C 90.176 91.114, 85 91.439, 81.197 92.503 M 41.915 97.039 C 34.452 100.831, 30.018 108.458, 30.006 117.527 C 29.996 124.103, 35.095 129, 41.950 129 C 44.917 129, 45.001 128.870, 45.037 124.250 C 45.094 116.829, 47.372 106.817, 50.124 101.893 C 51.505 99.423, 52.454 96.862, 52.234 96.201 C 51.656 94.468, 46.087 94.920, 41.915 97.039 M 141.568 95.890 C 141.265 96.380, 142.226 98.941, 143.702 101.582 C 146.608 106.782, 148.905 116.677, 148.963 124.250 C 148.999 128.870, 149.083 129, 152.050 129 C 155.840 129, 160.383 126.719, 162.439 123.783 C 165.880 118.870, 163.688 107.437, 158.197 101.664 C 153.403 96.624, 143.286 93.111, 141.568 95.890 M 157.500 99 C 158.495 100.100, 159.535 101, 159.810 101 C 160.085 101, 159.495 100.100, 158.500 99 C 157.505 97.900, 156.465 97, 156.190 97 C 155.915 97, 156.505 97.900, 157.500 99 M 3.195 103.500 C 3.215 105.150, 3.439 105.704, 3.693 104.731 C 3.947 103.758, 3.930 102.408, 3.656 101.731 C 3.382 101.054, 3.175 101.850, 3.195 103.500 M 190.158 104 C 190.158 105.375, 190.385 105.938, 190.662 105.250 C 190.940 104.563, 190.940 103.438, 190.662 102.750 C 190.385 102.063, 190.158 102.625, 190.158 104 M 85.269 187.693 C 86.242 187.947, 87.592 187.930, 88.269 187.656 C 88.946 187.382, 88.150 187.175, 86.500 187.195 C 84.850 187.215, 84.296 187.439, 85.269 187.693 M 106.269 187.693 C 107.242 187.947, 108.592 187.930, 109.269 187.656 C 109.946 187.382, 109.150 187.175, 107.500 187.195 C 105.850 187.215, 105.296 187.439, 106.269 187.693" stroke="none" fill-rule="evenodd"/>
</svg>