<svg viewBox="0 0 203.633 212.237" xmlns="http://www.w3.org/2000/svg">
  <defs/>
  <path d="M 73.317 135.25 L 73.317 77.412 L 129.03 77.412 L 129.03 135.25 L 73.317 135.25 Z M 73.317 207.547 L 73.317 149.709 L 129.03 149.709 L 129.03 207.547 L 105.526 207.547 L 73.317 207.547 Z M 142.958 135.25 L 142.958 77.412 L 198.671 77.412 L 198.671 135.25 L 142.958 135.25 Z M 142.958 207.547 L 142.958 149.709 L 198.671 149.709 L 198.671 207.547 L 142.958 207.547 Z M 156.886 120.79 Z M 156.886 164.168 Z M 115.102 164.168 Z M 115.102 120.79 Z"/>
  <path d="M 5.439 136.312 L 5.439 78.049 L 61.789 78.049 L 61.789 136.312 L 5.439 136.312 Z M 5.439 209.14 L 5.439 150.877 L 61.789 150.877 L 61.789 209.14 L 5.439 209.14 Z M 89.964 121.746 Z M 89.964 165.442 Z M 47.702 165.442 Z M 47.702 121.746 Z"/>
  <path d="M 73.796 63.39 L 73.796 5.552 L 129.509 5.552 L 129.509 63.39 L 73.796 63.39 Z M 143.437 63.39 L 143.437 5.552 L 199.15 5.552 L 199.15 63.39 L 143.437 63.39 Z M 157.365 48.93 Z M 157.365 92.308 Z M 115.581 92.308 Z M 115.581 48.93 Z"/>
  <path d="M 5.439 64.334 L 5.439 4.585 L 61.152 4.585 L 61.152 64.334 L 5.439 64.334 Z M 89.008 49.397 Z M 89.008 94.209 Z M 47.224 94.209 Z M 47.224 49.397 Z"/>
</svg>